<?xml version="1.0" encoding="utf-8"?>
<!-- Generator: Adobe Illustrator 25.2.0, SVG Export Plug-In . SVG Version: 6.00 Build 0)  -->
<svg version="1.1" id="ff6927f3-e348-4109-ae53-809eb073dcca"
	 xmlns="http://www.w3.org/2000/svg" xmlns:xlink="http://www.w3.org/1999/xlink" x="0px" y="0px" viewBox="0 0 923 637.6"
	 style="enable-background:new 0 0 923 637.6;" xml:space="preserve">
<style type="text/css">
	.st0{opacity:0;fill:#EDEEF0;}
	.st1{fill:#E6E6E6;}
	.st2{fill:#13181E;}
	.st3{fill:#9F616A;}
	.st4{fill:#DF9534;}
	.st5{fill:#FCFCFC;}
	.st6{fill:#FFB7B7;}
	.st7{fill:#FFB8B8;}
	.st8{fill:#CCCCCC;}
	.st9{fill:#E5E5E5;}
	.st10{fill:#FFFFFF;}
	.st11{opacity:0.2;enable-background:new    ;}
</style>
<rect y="-1.5" class="st0" width="923" height="638.1"/>
<path id="e8d007e8-8581-4ac8-8421-0613b3e5935f" class="st1" d="M91.2,590.8c0.4,14.9,2.9,29.6,7.4,43.8c0.1,0.3,0.2,0.7,0.3,1h27.6
	c0-0.3-0.1-0.6-0.1-1c-1.8-21.2,8.7-148.5,21.4-170.5C146.7,465.9,89,523.6,91.2,590.8z"/>
<path id="f8d01cab-c1a6-42c6-a30a-ae051f1ede34" class="st1" d="M93.2,634.6c0.2,0.3,0.5,0.7,0.7,1h20.7c-0.2-0.3-0.3-0.6-0.6-1
	c-3.4-6.2-13.6-24.6-23-43.8c-10.1-20.6-19.4-41.9-18.6-49.7C72.3,542.9,65.3,596.1,93.2,634.6z"/>
<path id="fd51cc05-38fd-444b-9e70-38f0335b4e21" class="st1" d="M429,612.9c0.2,7.6,1.5,15,3.8,22.2c0.1,0.2,0.1,0.3,0.2,0.5h14
	c0-0.1,0-0.3,0-0.5c-0.9-10.8,4.4-75.4,10.9-86.6C457.2,549.4,427.9,578.7,429,612.9z"/>
<path id="ef6d185a-ee65-40f0-bfea-de8a051c0d9b" class="st1" d="M430.1,635.1c0.1,0.2,0.2,0.3,0.4,0.5H441c-0.1-0.1-0.2-0.3-0.3-0.5
	c-1.7-3.1-6.9-12.5-11.7-22.2c-5.1-10.5-9.8-21.3-9.4-25.2C419.5,588.5,415.9,615.5,430.1,635.1z"/>
<polygon class="st2" points="346,182.2 310.3,207.6 332.5,209.9 363.4,183.7 "/>
<polygon class="st3" points="206.3,615.8 227.7,615.8 237.9,533 206.2,533 "/>
<path class="st2" d="M200.8,608.8h42.3l0,0c14.9,0,27,12.1,27,27v0.9h-69.3V608.8z"/>
<path class="st2" d="M192.7,319.9c0,0-9.3,10.5,6.1,51.5l-2.7,224.9l50-1l11-109.7l20-160.1L192.7,319.9z"/>
<path class="st4" d="M142.9,284.4c-6.1,0-11.1-4.9-11.3-11l-2.3-88.3l40.1-76.1c1.9-3.5,5.4-5.8,9.3-6l30.6-2l-2.7,178l-62.7,5.4
	C143.5,284.4,143.2,284.4,142.9,284.4z"/>
<path class="st5" d="M294.2,351l-0.5-0.1c-63.9-9.7-112.1-19.1-112.6-19.2l-0.6-0.1l16.8-40.7c-0.1-4.3-3.8-123.8,3.2-158.2
	c6.7-33.3,38.4-38.7,42-39.2l3.6-12l45.8,23.8l8,27.5l1.6,75.3L294.2,351z"/>
<path class="st4" d="M231.3,237c-29.5,0-53.5-32.1-53.5-71.5s24-71.5,53.5-71.5s53.5,32.1,53.5,71.5S260.8,237,231.3,237z
	 M231.3,101c-25.6,0-46.5,28.9-46.5,64.5s20.9,64.5,46.5,64.5s46.5-28.9,46.5-64.5S256.9,101,231.3,101L231.3,101z"/>
<path class="st3" d="M321.8,196c-4.2,0-8.1,1.7-11,4.8h-77l-28.2,6l4.6,35.7l100.3-21.6c5.5,6.2,15,6.8,21.2,1.3s6.8-15,1.3-21.2
	C330.2,197.8,326.1,196,321.8,196z"/>
<ellipse transform="matrix(0.7071 -0.7071 0.7071 0.7071 49.3366 219.7415)" class="st3" cx="289.9" cy="50.3" rx="37.1" ry="37.1"/>
<path class="st2" d="M255,20.6l-1.8-3.6l9-4.5c0,0,10-16.2,28-11.7s26.2,7.3,26.2,7.3l9,4.5l-4.5,4.5l8.1,2.7l-5.4,2.7l6.3,3.6
	l-3.4,18.6c0,0-5.6-14.1-16.5-8.7s-30.7-2.8-30.7-2.8L262,66.6c0,0-3.6-11.7-9.9-8.6C252.2,58.1,236,32.3,255,20.6z"/>
<path class="st6" d="M577.3,248.9l-1.6-29.7l-16-13l-9.3,27.5l-51.8,69.1c-7.1,1.1-11.9,7.8-10.8,14.9s7.8,11.9,14.9,10.8
	c6.3-1,10.9-6.5,10.9-12.8c0-0.2,0-0.3,0-0.5L577.3,248.9z"/>
<polygon class="st6" points="608.1,623.7 595.8,623.7 590,576.4 608.1,576.4 "/>
<path class="st2" d="M611.2,635.6h-39.5v-0.5c0-8.5,6.9-15.4,15.4-15.4l0,0h24.1V635.6z"/>
<polygon class="st6" points="665.1,623.7 652.8,623.7 647,576.4 665.1,576.4 "/>
<path class="st2" d="M668.2,635.6h-39.5v-0.5c0-8.5,6.9-15.4,15.4-15.4l0,0h24.1V635.6z"/>
<path class="st2" d="M652.1,124.7c5.2-21.4,9.6-45.6-0.2-65.3C645.2,45.7,620,41.1,605.6,46s-24.8,18.3-29.4,32.9s-4,30.3-2.1,45.5
	C600.7,123.9,627.2,123.4,652.1,124.7z"/>
<ellipse transform="matrix(0.8774 -0.4797 0.4797 0.8774 29.4577 302.8611)" class="st7" cx="607.4" cy="93.8" rx="30.9" ry="30.9"/>
<path class="st2" d="M645.2,87.5c0.4-21.4-16.6-39.1-38.1-39.5c-21.4-0.5-39.1,16.6-39.5,38c0,0.8,0,1.7,0,2.5
	C594.1,88.6,620.5,88.6,645.2,87.5z"/>
<path class="st2" d="M557.8,279.9c0,0-5,73-2.3,95.3c2.7,22.3,32.4,217,32.4,217h22.4l6.7-229.5l26.5,231.7l23.2-2.4l13.1-226.6
	c0,0-2.1-84.8-18.8-93.4L557.8,279.9z"/>
<path class="st5" d="M593,352.3c-16.5,0-32.7-3.9-47.3-11.5l-0.3-0.2l12.4-82.2l-0.8-97.9c-0.1-11.2,8.9-20.3,20.1-20.4
	c0.1,0,0.2,0,0.4,0l66.5,0.6c11.8,0.1,21.4,9.8,21.2,21.6c0,0.5,0,1-0.1,1.5l-6.2,78.5l20.6,63.7l-3.6,4.8
	C656.2,337,625.6,352.3,593,352.3z"/>
<path class="st5" d="M550.3,224.7l7-71.1l2.2-3.2c6.4-9.1,19.1-11.4,28.2-4.9c0,0,0,0,0.1,0l1.9,1.4l-1.9,72L550.3,224.7z"/>
<path class="st2" d="M835.6,571.8c18-5,25.7,22.4,7.7,27.5C825.3,604.3,817.6,576.9,835.6,571.8z"/>
<path class="st2" d="M735.8,607c18-5,25.7,22.4,7.7,27.5C725.5,639.5,717.8,612.1,735.8,607z"/>
<path class="st2" d="M695.4,318.7l0.3-0.1L742,444.5l6.1-1.7L701.4,316l0,0c-0.2-4-3.2-7.4-7.2-8c-23.2-3.7-32.6,16.9-32.6,16.9
	l0.1,0.1l47.4,128.7l6.1-1.7l-46-124.9C683.3,313.2,695.4,318.7,695.4,318.7z"/>
<path class="st4" d="M748.5,614.1c-13.6-0.1-25.5-9-29.5-22c-8.8-29-29.7-98.4-32.5-117.2c-3.6-24.5,16.7-31.5,17.1-31.6
	c0.5-0.2,8.7-2.5,20-5.6c19.2-5.4,48.2-13.5,49.3-14c9.1-3.2,19.1-2.4,27.6,2.1c8.8,4.6,15.2,12.6,17.9,22.1l29.9,106.3
	c3.8,13.4-2.6,27.7-15.2,33.7c-23,11.1-56.8,25.8-84.2,26.3C748.8,614.1,748.7,614.1,748.5,614.1z"/>
<path class="st6" d="M690.4,314.3l-15-87.7l-1.7-29.6l-24.3,8L670,319.8c-2.5,6.7,1,14.2,7.7,16.7s14.2-1,16.7-7.7
	C696.2,323.7,694.7,317.8,690.4,314.3z"/>
<path class="st5" d="M679.5,221.1l-37.9-2.1l-8.9-71.5l0.9-0.8c8.9-7.8,22.5-6.8,30.3,2.1c0,0,0,0,0.1,0.1l1.8,2v0.1L679.5,221.1z"
	/>
<polygon class="st2" points="833.8,570.3 795.1,439.2 704,465 703.5,463 796.4,436.8 796.7,437.7 835.7,569.7 "/>
<polygon class="st2" points="145.8,275 141.6,185.1 183.9,102.6 185.7,103.5 143.7,185.6 147.8,275 "/>
<path class="st8" d="M922,637.6H1c-0.6,0-1-0.4-1-1s0.4-1,1-1h921c0.6,0,1,0.4,1,1S922.6,637.6,922,637.6z"/>
<path class="st5" d="M210.8,249.2L202,223l-2.1-87.3l3.8-12.4c5.5-18.3,24.9-28.6,43.1-23.1c18.3,5.5,28.6,24.9,23.1,43.1
	c-0.3,0.9-0.6,1.7-0.9,2.5l-20.1,51.5l1,2l43.5-0.4l15.5,27.8L210.8,249.2z"/>
<path class="st9" d="M488.2,435.5L488.2,435.5l-48.3,9.7l-41.5,16.7c-2.3,0.9-4.8-0.2-5.7-2.4l0,0c-0.1-0.1-0.1-0.3-0.1-0.4
	l-30.3-101.6c-0.7-2.2,0.5-4.5,2.6-5.3l42.3-17l0,0l48.3-9.7l41.5-16.7c2.3-0.9,4.8,0.2,5.7,2.4c0.1,0.1,0.1,0.3,0.1,0.4L533,413.1
	c0.7,2.2-0.5,4.5-2.6,5.3L488.2,435.5z"/>
<path class="st10" d="M436.4,367.3c-11.1-3.9-22.5-7.3-34-10.2l-0.6-0.1l5.8,19.5l29.7-8.9L436.4,367.3z M408.1,375.7l-5.3-17.7
	c10.9,2.7,21.8,6,32.4,9.7L408.1,375.7z M494.4,393.7c-5.2-2.9-10.4-5.7-15.7-8.4c-1.5-0.7-2.9-1.5-4.4-2.2
	c-9-4.4-18.1-8.3-27.3-11.9h-0.1l-37.5,11.2l10.2,34.3l75.5-22.5L494.4,393.7z M420.1,415.8l-9.8-33l36.6-10.9
	c8.9,3.5,17.7,7.3,26.5,11.5c1.5,0.7,3,1.5,4.5,2.2c5.2,2.6,10.4,5.4,15.5,8.3L420.1,415.8z M494.4,393.7
	c-5.2-2.9-10.4-5.7-15.7-8.4c-1.5-0.7-2.9-1.5-4.4-2.2c-9-4.4-18.1-8.3-27.3-11.9h-0.1l-37.5,11.2l10.2,34.3l75.5-22.5L494.4,393.7z
	 M420.1,415.8l-9.8-33l36.6-10.9c8.9,3.5,17.7,7.3,26.5,11.5c1.5,0.7,3,1.5,4.5,2.2c5.2,2.6,10.4,5.4,15.5,8.3L420.1,415.8z
	 M436.4,367.3c-11.1-3.9-22.5-7.3-34-10.2l-0.6-0.1l5.8,19.5l29.7-8.9L436.4,367.3z M408.1,375.7l-5.3-17.7
	c10.9,2.7,21.8,6,32.4,9.7L408.1,375.7z M436.4,367.3c-11.1-3.9-22.5-7.3-34-10.2l-0.6-0.1l5.8,19.5l29.7-8.9L436.4,367.3z
	 M408.1,375.7l-5.3-17.7c10.9,2.7,21.8,6,32.4,9.7L408.1,375.7z M494.4,393.7c-5.2-2.9-10.4-5.7-15.7-8.4c-1.5-0.7-2.9-1.5-4.4-2.2
	c-9-4.4-18.1-8.3-27.3-11.9h-0.1l-37.5,11.2l10.2,34.3l75.5-22.5L494.4,393.7z M420.1,415.8l-9.8-33l36.6-10.9
	c8.9,3.5,17.7,7.3,26.5,11.5c1.5,0.7,3,1.5,4.5,2.2c5.2,2.6,10.4,5.4,15.5,8.3L420.1,415.8z M389.2,432.1l0.2,0.6l25.7-7.7l2.8,9.4
	l-25.7,7.7l0.2,0.6l26.3-7.9l-3.2-10.7L389.2,432.1z M426.3,439l2,6.6l0.6-0.3l-1.8-5.9l100-29.9l-0.2-0.6L426.3,439z M522.2,393
	l-0.2-0.6l-100.7,30.1l3.2,10.7l100.7-30.1l-0.2-0.6l-100,29.9l-2.8-9.4L522.2,393z M447.5,363.9c-15.3-5.9-31.1-10.6-47.1-14.2
	l-2-6.6l-0.6,0.3l2,6.6l0.7,0.4c16,3.5,31.7,8.3,46.9,14.2h0.1l60.9-18.2l-0.2-0.6L447.5,363.9z M400.9,377.8l-25.7,7.7l0.2,0.6
	l26.3-7.9l-9.7-32.6l-0.6,0.3L400.9,377.8z M510.1,352.3l-53.5,16l0.9,0.4c8.2,3.5,16.4,7.3,24.6,11.5c1.2,0.6,2.3,1.2,3.5,1.8
	c5.8,3,11.5,6.2,17.2,9.6l0.6,0.2l17.1-5.1l-0.2-0.6l-17,5.1c-5.6-3.3-11.3-6.5-17-9.5c-1.1-0.6-2.3-1.2-3.4-1.8
	c-8-4.1-16-7.9-24.1-11.3l51.7-15.4L510.1,352.3z M394.2,448.6l0.2,0.6l25.7-7.7l2,6.5l0.6-0.3l-2.1-7.1L394.2,448.6z M377.2,391.9
	l0.2,0.6l25.7-7.7l9.8,33l-25.7,7.7l0.2,0.6l26.3-7.9l-10.2-34.3L377.2,391.9z M436.4,367.3c-11.1-3.9-22.5-7.3-34-10.2l-0.6-0.1
	l5.8,19.5l29.7-8.9L436.4,367.3z M408.1,375.7l-5.3-17.7c10.9,2.7,21.8,6,32.4,9.7L408.1,375.7z M494.4,393.7
	c-5.2-2.9-10.4-5.7-15.7-8.4c-1.5-0.7-2.9-1.5-4.4-2.2c-9-4.4-18.1-8.3-27.3-11.9h-0.1l-37.5,11.2l10.2,34.3l75.5-22.5L494.4,393.7z
	 M420.1,415.8l-9.8-33l36.6-10.9c8.9,3.5,17.7,7.3,26.5,11.5c1.5,0.7,3,1.5,4.5,2.2c5.2,2.6,10.4,5.4,15.5,8.3L420.1,415.8z
	 M436.4,367.3c-11.1-3.9-22.5-7.3-34-10.2l-0.6-0.1l5.8,19.5l29.7-8.9L436.4,367.3z M408.1,375.7l-5.3-17.7
	c10.9,2.7,21.8,6,32.4,9.7L408.1,375.7z M494.4,393.7c-5.2-2.9-10.4-5.7-15.7-8.4c-1.5-0.7-2.9-1.5-4.4-2.2
	c-9-4.4-18.1-8.3-27.3-11.9h-0.1l-37.5,11.2l10.2,34.3l75.5-22.5L494.4,393.7z M420.1,415.8l-9.8-33l36.6-10.9
	c8.9,3.5,17.7,7.3,26.5,11.5c1.5,0.7,3,1.5,4.5,2.2c5.2,2.6,10.4,5.4,15.5,8.3L420.1,415.8z"/>
<path class="st4" d="M445,370.3c2.5,8.2-7,31-7,31s-20.4-13.9-22.8-22.1c-2.5-8.2,2.2-16.9,10.4-19.4S442.5,362.1,445,370.3
	L445,370.3L445,370.3z"/>
<path class="st10" d="M436.7,372.1c1.1,3.8-1,7.7-4.8,8.8c-3.8,1.1-7.7-1-8.8-4.8c-1.1-3.8,1-7.7,4.8-8.8l0,0
	C431.6,366.2,435.6,368.3,436.7,372.1L436.7,372.1z"/>
<circle class="st4" cx="440" cy="408.1" r="4.2"/>
<path class="st10" d="M485.8,353l-29.1,8.7h-0.1l6.6-28c0.1-0.5,0.7-0.9,1.2-0.8c0.2,0,0.3,0.1,0.5,0.3l14,13.2l0.7,0.6L485.8,353z"
	/>
<polygon class="st11" points="485.8,353 475.8,355.9 478.6,347.4 478.8,346.8 478.9,346.5 479.5,347.1 "/>
<path class="st10" d="M502,348.1l-25.2,7.5l2.8-8.5l0.2-0.6l3.6-11.1c0.3-0.7,1.1-1,1.7-0.7c0,0,0.1,0,0.1,0.1l0.1,0.1L502,348.1z"
	/>
</svg>
