<?xml version="1.0" encoding="utf-8"?>
<!-- Generator: Adobe Illustrator 25.2.0, SVG Export Plug-In . SVG Version: 6.00 Build 0)  -->
<svg version="1.1" id="b74f039e-7d6a-4faf-9af8-185aab588417"
	 xmlns="http://www.w3.org/2000/svg" xmlns:xlink="http://www.w3.org/1999/xlink" x="0px" y="0px" viewBox="0 0 929 743.5"
	 style="enable-background:new 0 0 929 743.5;" xml:space="preserve">
<style type="text/css">
	.st0{fill:#EDEEF0;}
	.st1{fill:#F2F2F2;}
	.st2{fill:#FFFFFF;}
	.st3{fill:#13181E;}
	.st4{fill:#CCCCCC;}
	.st5{fill:#DF9534;}
	.st6{fill:#A0616A;}
	.st7{fill:#6C63FF;}
	.st8{fill:#3F3D56;}
</style>
<rect class="st0" width="929" height="743.5"/>
<path class="st1" d="M929,692.6c-0.1,16.4-1.3,32.7-3.6,49c-0.1,0.6-0.2,1.1-0.2,1.7l-153.4-0.9c-0.5-0.6-0.9-1.1-1.3-1.7
	c-1.4-1.9-2.8-3.9-4-5.9c-5.9-9.8-8.6-21.3-5.9-29.3l0-0.1c0.6-1.7,1.5-3.3,2.7-4.7c6.2-7,18.7-5.8,30.1-0.2
	c-10.2-11.2-18.3-25.2-18.9-37.8c-0.6-12.3,5.8-21,12.8-28.5c0.2-0.2,0.5-0.5,0.7-0.7c0.1-0.1,0.2-0.2,0.3-0.4
	c5.4-5.7,11.8-11.3,20.9-10.6c10,0.7,21.2,9.2,29,19c7.8,9.8,13,20.9,18.3,31.8c5.3,10.9,11,22,19.4,31.3
	c-11.4-14.5-20.7-30.9-24.1-47s-0.4-31.4,9.8-38.9c3.1-2.2,6.7-3.7,10.4-4.2c0.4-0.1,0.9-0.1,1.3-0.2c9.4-1.1,20.7,2.2,30.3,10
	c10.6,8.6,17.9,21.3,21.5,33.4C928.7,669.7,929.1,681.3,929,692.6z"/>
<path class="st2" d="M828.6,742.7l-2.9,0c-0.9-0.6-1.9-1.2-2.8-1.7c-0.6-0.4-1.2-0.7-1.8-1.1c-9.7-5.9-19.5-11.6-29.4-17.1
	c-9.8-5.5-19.7-10.7-29.7-15.6c-0.5-0.2-0.8-0.8-0.7-1.4c0,0,0-0.1,0-0.1c0.1-0.3,0.4-0.4,0.9-0.1c1.2,0.6,2.4,1.2,3.7,1.8
	c10,5,19.9,10.3,29.8,15.9c9.9,5.5,19.7,11.3,29.5,17.4c0.2,0.1,0.4,0.3,0.6,0.4C826.7,741.6,827.7,742.2,828.6,742.7z"/>
<path class="st2" d="M866.4,743l-1.8,0c-0.4-0.6-0.8-1.1-1.2-1.7c-9.6-13.5-19.2-27-28.8-40.4c-15.7-22.1-31.5-44.1-47.2-66.2
	c-0.1-0.1-0.2-0.3-0.2-0.4c-0.1-0.5,0.2-0.8,0.7-0.7c0.4,0.1,0.7,0.3,1,0.6c8.8,12.4,17.6,24.8,26.5,37.1c15.7,22,31.3,43.9,47,65.9
	c1,1.4,2,2.8,3,4.2C865.6,741.8,866,742.4,866.4,743z"/>
<path class="st2" d="M906.9,732.4c-0.1,3.1-0.3,6.1-0.6,9c-0.1,0.6-0.1,1.1-0.2,1.7l-1.9,0c0.1-0.6,0.1-1.1,0.2-1.7
	c0.4-4.3,0.7-8.7,0.7-13.1c0.1-12.4-1.2-24.8-3.6-36.9c-2.6-13.1-6.3-25.9-11.2-38.4c-5.1-13.1-11.2-25.8-18.3-38
	c-0.1-0.2-0.2-0.4-0.2-0.7c0.1-0.5,0.8-0.7,1.3-0.2c0.1,0.1,0.2,0.2,0.3,0.3c0.9,1.5,1.7,3,2.6,4.5c6.8,12.2,12.7,25,17.5,38.1
	c4.6,12.5,8.1,25.3,10.4,38.4C906.2,707.7,907.2,720.1,906.9,732.4z"/>
<path class="st1" d="M628.9,716.3c-0.1,8.6-0.7,17.1-1.9,25.6c0,0.3-0.1,0.6-0.1,0.9l-80.2-0.4c-0.2-0.3-0.5-0.6-0.7-0.9
	c-0.7-1-1.5-2-2.1-3.1c-3.1-5.1-4.5-11.2-3.1-15.3l0-0.1c0.3-0.9,0.8-1.7,1.4-2.5c3.2-3.6,9.8-3,15.7-0.1
	c-5.3-5.8-9.6-13.2-9.9-19.8c-0.3-6.4,3-11,6.7-14.9c0.1-0.1,0.2-0.3,0.4-0.4c0.1-0.1,0.1-0.1,0.2-0.2c2.8-3,6.1-5.9,10.9-5.5
	c5.2,0.4,11.1,4.8,15.1,9.9c4.1,5.1,6.8,10.9,9.5,16.6c2.8,5.7,5.7,11.5,10.1,16.3c-6-7.6-10.8-16.2-12.6-24.5s-0.2-16.4,5.1-20.4
	c1.6-1.2,3.5-1.9,5.5-2.2c0.2,0,0.5-0.1,0.7-0.1c4.9-0.6,10.8,1.1,15.8,5.2c5.4,4.6,9.3,10.7,11.3,17.5
	C628.8,704.4,629,710.5,628.9,716.3z"/>
<path class="st2" d="M576.5,742.6l-1.5,0c-0.5-0.3-1-0.6-1.5-0.9c-0.3-0.2-0.6-0.4-0.9-0.6c-5.1-3.1-10.2-6.1-15.4-8.9
	c-5.1-2.9-10.3-5.6-15.5-8.2c-0.3-0.1-0.4-0.4-0.4-0.7c0,0,0,0,0-0.1c0.1-0.1,0.2-0.2,0.5-0.1c0.6,0.3,1.3,0.6,1.9,1
	c5.2,2.6,10.4,5.4,15.6,8.3c5.2,2.9,10.3,5.9,15.4,9.1c0.1,0.1,0.2,0.1,0.3,0.2C575.5,742,576,742.3,576.5,742.6z"/>
<path class="st2" d="M596.3,742.7l-0.9,0c-0.2-0.3-0.4-0.6-0.6-0.9c-5-7-10-14.1-15.1-21.1c-8.2-11.5-16.4-23.1-24.7-34.6
	c0-0.1-0.1-0.1-0.1-0.2c-0.1-0.3,0.1-0.4,0.4-0.4c0.2,0,0.4,0.1,0.5,0.3c4.6,6.5,9.2,12.9,13.8,19.4c8.2,11.5,16.4,23,24.5,34.4
	c0.5,0.7,1,1.5,1.6,2.2C595.8,742.1,596,742.4,596.3,742.7z"/>
<path class="st2" d="M617.4,737.2c0,1.6-0.2,3.2-0.3,4.7c0,0.3-0.1,0.6-0.1,0.9l-1,0c0-0.3,0.1-0.6,0.1-0.9c0.2-2.3,0.4-4.5,0.4-6.9
	c0-6.5-0.6-12.9-1.9-19.3c-1.4-6.8-3.3-13.6-5.8-20.1c-2.6-6.9-5.8-13.5-9.6-19.8c-0.1-0.1-0.1-0.2-0.1-0.4c0-0.3,0.4-0.4,0.7-0.1
	c0.1,0.1,0.1,0.1,0.1,0.2c0.5,0.8,0.9,1.6,1.4,2.4c3.6,6.4,6.6,13,9.1,19.9c2.4,6.5,4.2,13.2,5.4,20.1
	C617,724.3,617.5,730.7,617.4,737.2z"/>
<path class="st3" d="M166,404.3H15.7c-8.7,0-15.7-7-15.7-15.7V208.1c0-8.7,7-15.7,15.7-15.7H166c8.7,0,15.7,7,15.7,15.7v180.5
	C181.6,397.3,174.6,404.3,166,404.3z M15.7,194.5c-7.5,0-13.7,6.1-13.7,13.7v180.5c0,7.5,6.1,13.7,13.7,13.7H166
	c7.5,0,13.7-6.1,13.7-13.7V208.1c0-7.5-6.1-13.7-13.7-13.7H15.7z"/>
<path class="st4" d="M125.9,207.3H55.7c-6.9,0-12.5-5.6-12.5-12.5v-2.7c0-6.9,5.6-12.5,12.5-12.5h70.3c6.9,0,12.5,5.6,12.5,12.5v2.7
	C138.4,201.7,132.8,207.3,125.9,207.3z"/>
<path class="st5" d="M159.7,305.5H21.9c-3.9,0-7.1-3.2-7.1-7.1s3.2-7.1,7.1-7.1h137.8c3.9,0,7.1,3.2,7.1,7.1
	S163.7,305.5,159.7,305.5z"/>
<path class="st5" d="M159.7,335.7H21.9c-3.9,0-7.1-3.2-7.1-7.1s3.2-7.1,7.1-7.1h137.8c3.9,0,7.1,3.2,7.1,7.1
	S163.7,335.7,159.7,335.7z"/>
<path class="st5" d="M122.8,275.3h-64c-3.9,0-7.1-3.2-7.1-7.1s3.2-7.1,7.1-7.1h64c3.9,0,7.1,3.2,7.1,7.1S126.8,275.3,122.8,275.3z"
	/>
<path class="st3" d="M485.2,224.7H334.9c-8.7,0-15.7-7-15.7-15.7V28.5c0-8.7,7-15.7,15.7-15.7h150.3c8.7,0,15.7,7,15.7,15.7V209
	C500.9,217.7,493.8,224.7,485.2,224.7z M334.9,14.8c-7.5,0-13.7,6.1-13.7,13.7V209c0,7.5,6.1,13.7,13.7,13.7h150.3
	c7.5,0,13.7-6.1,13.7-13.7V28.5c0-7.5-6.1-13.7-13.7-13.7H334.9z"/>
<path class="st4" d="M445.2,27.7h-70.3c-6.9,0-12.5-5.6-12.5-12.5v-2.7C362.4,5.6,368,0,374.9,0h70.3c6.9,0,12.5,5.6,12.5,12.5v2.7
	C457.7,22.1,452.1,27.7,445.2,27.7z"/>
<path class="st5" d="M479,125.9H341.1c-3.9,0-7.1-3.2-7.1-7.1s3.2-7.1,7.1-7.1c0,0,0,0,0,0H479c3.9,0,7.1,3.2,7.1,7.1
	S482.9,125.9,479,125.9C479,125.9,479,125.9,479,125.9z"/>
<path class="st5" d="M479,156.1H341.1c-3.9,0-7.1-3.2-7.1-7.1c0-3.9,3.2-7.1,7.1-7.1H479c3.9,0,7.1,3.2,7.1,7.1
	C486.1,152.9,482.9,156.1,479,156.1C479,156.1,479,156.1,479,156.1L479,156.1z"/>
<path class="st5" d="M442.1,95.6h-64c-3.9,0-7.1-3.2-7.1-7.1s3.2-7.1,7.1-7.1c0,0,0,0,0,0h64c3.9,0,7.1,3.2,7.1,7.1
	C449.2,92.5,446,95.6,442.1,95.6L442.1,95.6z"/>
<path class="st3" d="M791.8,528.8l-132,71.9c-7.6,4.1-17.1,1.3-21.3-6.3L552.2,436c-4.1-7.6-1.3-17.1,6.3-21.3l132-71.9
	c7.6-4.1,17.1-1.3,21.3,6.3l86.4,158.5C802.2,515.2,799.4,524.7,791.8,528.8z M559.4,416.5c-6.6,3.6-9.1,11.9-5.5,18.5l86.4,158.5
	c3.6,6.6,11.9,9.1,18.5,5.5l132-71.9c6.6-3.6,9.1-11.9,5.5-18.5L709.9,350c-3.6-6.6-11.9-9.1-18.5-5.5L559.4,416.5z"/>
<path class="st4" d="M662.4,375l-61.7,33.6c-6.1,3.3-13.6,1.1-17-5l-1.3-2.4c-3.3-6.1-1.1-13.6,5-17l61.7-33.6
	c6.1-3.3,13.6-1.1,17,5l1.3,2.4C670.7,364.1,668.4,371.7,662.4,375z"/>
<path class="st4" d="M739,445.1l-121,66c-3.4,1.9-7.8,0.6-9.7-2.8s-0.6-7.8,2.8-9.7c0,0,0,0,0,0l121-66c3.5-1.9,7.8-0.6,9.6,2.9
	C743.8,438.9,742.5,443.2,739,445.1z"/>
<path class="st4" d="M753.5,471.6l-121,66c-3.4,1.9-7.8,0.6-9.7-2.8s-0.6-7.8,2.8-9.7c0,0,0,0,0,0l121-66c3.5-1.9,7.8-0.6,9.6,2.9
	C758.2,465.4,756.9,469.7,753.5,471.6z"/>
<path class="st4" d="M692.2,436.2l-56.2,30.6c-3.4,1.9-7.8,0.6-9.7-2.8c-1.9-3.4-0.6-7.8,2.8-9.7c0,0,0,0,0,0l56.2-30.6
	c3.4-1.9,7.8-0.6,9.7,2.8S695.6,434.3,692.2,436.2C692.2,436.2,692.2,436.2,692.2,436.2z"/>
<rect x="203.9" y="183.7" transform="matrix(0.8648 -0.5021 0.5021 0.8648 -59.6975 147.7756)" class="st3" width="81.3" height="2"/>
<polygon class="st3" points="282.2,174.4 292.1,157.1 272.2,157.2 "/>
<path class="st3" d="M487.2,431.9c-0.2,0-0.3,0-0.5-0.1L216.6,293.1c-0.5-0.3-0.7-0.9-0.4-1.3s0.9-0.7,1.3-0.4l270.1,138.8
	c0.5,0.3,0.7,0.9,0.4,1.3C488,431.7,487.6,431.9,487.2,431.9z"/>
<polygon class="st3" points="480.1,438.5 500,437.5 489.2,420.7 "/>
<path class="st6" d="M766,546.7c-5.3-2.6-7.5-9.1-4.8-14.4c0.3-0.6,0.6-1.1,1-1.6l-8-78.5h17.4l6.4,76.7c4.5,3.9,5.1,10.7,1.2,15.2
	C775.8,547.8,770.4,548.9,766,546.7L766,546.7z"/>
<circle class="st6" cx="750" cy="384.2" r="24.6"/>
<path class="st5" d="M744.4,497.8l-36.7-8c-2-0.4-3.4-2.1-3.5-4.2c-0.4-8.2-0.7-29.3,5.6-49.1c5-15.6,21.8-24.2,37.4-19.2
	c0.3,0.1,0.5,0.2,0.8,0.3l0,0c15.5,5.4,23.7,22.4,18.2,37.9c-0.4,1.1-0.8,2.1-1.3,3.1c-8.1,16.7-13.2,28.8-15.2,35.9
	C749.1,496.9,746.8,498.3,744.4,497.8z"/>
<polygon class="st6" points="709.9,731.1 697.7,731.1 691.8,683.8 709.9,683.8 "/>
<path class="st3" d="M688.9,727.6h23.6l0,0v14.9l0,0H674l0,0l0,0C674,734.3,680.7,727.6,688.9,727.6L688.9,727.6z"/>
<polygon class="st6" points="832.5,715.2 821.8,721.1 793.9,682.5 809.7,673.8 "/>
<path class="st3" d="M812.4,722.3l20.7-11.4l0,0l7.2,13l0,0l-33.8,18.6l0,0l0,0C802.6,735.3,805.2,726.2,812.4,722.3L812.4,722.3z"
	/>
<path class="st3" d="M710.1,704.8l-18.9-1.5c-2.2-0.2-3.9-1.9-4.1-4c-2.7-28.1-14.5-170.2,17.4-214l0.1-0.1l0.1-0.1
	c0.3-0.1,28.8-10.3,45.1,8.3c1,1.2,1.4,2.9,0.9,4.4l-0.6,1.9c-0.4,1.1-0.2,2.3,0.5,3.2c4.5,6.1,19.8,29.7,25.8,76.1
	c0,0.3,0.1,0.6,0.2,0.9l44.3,108.7c0.9,2.3-0.2,4.9-2.5,5.9c0,0-0.1,0-0.1,0l-13.9,5.3c-2.1,0.8-4.5-0.1-5.5-2l-63.9-115.9
	c-0.7-1.2-2.2-1.6-3.4-1c-0.7,0.4-1.2,1.1-1.3,1.9l-15.3,118.1c-0.3,2.2-2.2,3.9-4.5,3.9C710.4,704.8,710.3,704.8,710.1,704.8z"/>
<path class="st6" d="M654.6,412.7c0.1,0.5,0.2,1.1,0.2,1.6l43,24.8l10.4-6l11.1,14.6l-17.5,12.4c-2.9,2.1-6.8,2-9.6-0.2L648,425
	c-5.4,2-11.5-0.8-13.5-6.2c-2-5.4,0.8-11.5,6.2-13.5c5.4-2,11.5,0.8,13.5,6.2C654.3,411.9,654.5,412.3,654.6,412.7L654.6,412.7z"/>
<path class="st5" d="M698.3,436.7c0.3-1.3,1.1-2.4,2.2-3l19.7-11c5.5-4.2,13.3-3.2,17.5,2.3c4.2,5.4,3.2,13.3-2.2,17.5l-15.7,16.3
	c-1.7,1.8-4.6,1.8-6.4,0.1c-0.2-0.2-0.3-0.3-0.4-0.5l-13.9-18C698.4,439.3,698.1,438,698.3,436.7z"/>
<path class="st7" d="M749.4,470.7c-1-0.8-1.6-2-1.7-3.4l-0.7-22.6c-1.2-6.8,3.3-13.3,10.1-14.5c6.8-1.2,13.3,3.2,14.5,10l7.3,21.5
	c0.8,2.4-0.5,4.9-2.8,5.7c-0.2,0.1-0.4,0.1-0.6,0.2l-22.4,4C751.7,471.8,750.4,471.5,749.4,470.7z"/>
<path class="st3" d="M746.1,378.6c-6.3,4.3-14.6,8.8-21,4.2c-4.2-3-5.6-8.6-3.9-13.5c3.1-8.8,11.6-12.7,19.7-15.7
	c10.5-3.9,22-7,32.9-4.2s20.5,13.3,18.5,24.4c-1.6,8.9-10,16.3-8.8,25.2c1.2,9,11.3,13.8,20.3,15.4s19,2.1,25.4,8.6
	c8.2,8.2,6.2,22.9-1.6,31.5s-19.4,12.6-30.7,15.2c-15,3.5-31.1,5.4-45.3-0.5s-25.3-21.7-21.1-36.5c1.7-6.3,5.8-11.5,9.8-16.7
	s8-10.5,9.5-16.8c1.3-5.3,0.3-11.4-3.2-15.3c-1.3-1.4-1.5-3.5-0.6-5.2L746.1,378.6z"/>
<path class="st8" d="M926.3,743.5h-381c-0.6,0-1-0.4-1-1s0.4-1,1-1h381c0.6,0,1,0.4,1,1S926.9,743.5,926.3,743.5z"/>
</svg>
